<?xml version="1.0" encoding="UTF-8"?>
<svg id="Layer_1" xmlns="http://www.w3.org/2000/svg" version="1.1" xmlns:xlink="http://www.w3.org/1999/xlink" viewBox="0 0 259 39.3">
  <!-- Generator: Adobe Illustrator 29.0.0, SVG Export Plug-In . SVG Version: 2.1.0 Build 186)  -->
  <defs>
    <style>
      .st0 {
        fill: url(#linear-gradient2);
      }

      .st1 {
        fill: url(#linear-gradient1);
      }

      .st2 {
        fill: #231f20;
      }

      .st3 {
        fill: #c5d831;
      }

      .st4 {
        fill: url(#linear-gradient);
      }

      .st5 {
        fill: #b02e91;
      }
    </style>
    <linearGradient id="linear-gradient" x1="17.3" y1="-13.5" x2="21.7" y2="24.8" gradientTransform="translate(0 39.9) scale(1 -1)" gradientUnits="userSpaceOnUse">
      <stop offset="0" stop-color="#0096db"/>
      <stop offset="1" stop-color="#d24f9c"/>
    </linearGradient>
    <linearGradient id="linear-gradient1" x1="40.3" y1="-16.7" x2="44.6" y2="21.6" gradientTransform="translate(0 39.9) scale(1 -1)" gradientUnits="userSpaceOnUse">
      <stop offset="0" stop-color="#0096db"/>
      <stop offset="1" stop-color="#d24f9c"/>
    </linearGradient>
    <linearGradient id="linear-gradient2" x1="66.2" y1="-19.8" x2="70.5" y2="18.5" gradientTransform="translate(0 39.9) scale(1 -1)" gradientUnits="userSpaceOnUse">
      <stop offset="0" stop-color="#0096db"/>
      <stop offset="1" stop-color="#d24f9c"/>
    </linearGradient>
  </defs>
  <path class="st4" d="M8.7,33.5l3.9-5c1.1.8,2.1,1.6,3.2,2.1s2.2.7,3.6.7,2.7-.4,3.8-1.3c1.1-.8,1.5-2,1.5-3.5s-.4-2.2-1.2-3c-.7-.8-2-1.4-3.7-1.4s-1.3,0-1.8.2c-.5.1-.9.2-1.3.4l-1.8-2.9,8-8.2h-11.7v-6.2h19.6v5l-6.5,7.4c2.5.4,4.3,1.5,5.6,3,1.3,1.7,1.9,3.7,1.9,6.1s-.5,4.1-1.7,5.6c-1.2,1.6-2.6,2.7-4.5,3.5-1.9.8-3.9,1.3-6,1.3s-4.4-.3-6.2-1.1-3.4-1.7-4.7-2.8h.1Z"/>
  <path class="st1" d="M54.5,6.5l-2.6,5.5c-.4-.2-1.1-.4-2-.8-.9-.3-1.9-.5-3-.5-1.8,0-3.4.6-4.7,2-1.4,1.4-2.1,3-2.4,5.3.7-.4,1.6-.8,2.6-1.3,1.1-.4,2.1-.5,3.4-.5,3,0,5.5.9,7.3,2.8,1.8,1.9,2.6,4.3,2.6,7.4s-.4,3.9-1.3,5.6-2.1,3-3.8,4.1-3.7,1.6-6,1.6-4.3-.5-6.1-1.6-3.3-2.7-4.3-5-1.6-5.3-1.6-8.9.5-6.2,1.7-8.8,2.7-4.7,4.8-6.2,4.7-2.3,7.9-2.3,3.3.2,4.6.7c1.3.4,2.3.8,3,1.3h-.1ZM39.5,23.5c0,2,.3,3.6.7,4.6.4,1.2,1.1,1.9,1.8,2.4.7.4,1.6.7,2.3.7,1.4,0,2.4-.4,3.3-1.4s1.3-2.1,1.3-3.7-.4-2.5-1.3-3.3c-.8-.8-1.9-1.2-3.2-1.2s-2.2.2-2.9.5c-.8.3-1.5.7-2.1,1.3h.1Z"/>
  <polygon class="st3" points="68.1 29.1 66.2 34.3 65 37.4 70.8 37.4 70.8 34.9 70.8 29.4 70.8 22.1 68.1 29.1"/>
  <path class="st2" d="M77.8,26.5"/>
  <path class="st0" d="M86,19.7c0-8.4-6.8-15.2-15.2-15.2s-15.2,6.8-15.2,15.2,2.1,8.8,5.4,11.6l-.6,1.2c-1.3,2.2.3,4.9,2.8,4.9h1.8l1.2-3.2,1.9-5.2,2.6-7,2.6,7,1.9,5.2,1.2,3.2h1.8c2.5,0,4.1-2.7,2.8-4.9l-.6-1.2-2.8-4.8-4.2-7.3c-1.3-2.2-4.4-2.2-5.7,0l-4.2,7.3c-1.7-1.8-2.7-4.1-2.7-6.7,0-5.4,4.3-9.8,9.8-9.8s9.8,4.3,9.8,9.8-.8,4.5-2.2,6.2l2.3,5.5c3.3-2.8,5.4-6.9,5.4-11.6h.4Z"/>
  <g>
    <path class="st5" d="M91,21.8c0-6.6,4.4-10.9,10.5-10.9s2.4,1.1,2.4,2.4-1.1,2.4-2.4,2.4c-3,0-5.4,2.1-5.4,6.2v11.1c0,1.5-1.2,2.6-2.5,2.6s-2.5-1.2-2.5-2.6v-11.1h-.1Z"/>
    <path class="st5" d="M103.8,23.2c0-6.9,5.3-12.4,12.4-12.4s6.5,1.5,8.1,2.9c.5.5.9,1.3.9,2s-.2,1.3-.7,1.9l-7.2,8.5c-.5.6-1.1.8-1.8.8-1.4,0-2.4-.9-2.4-2.3s.1-1.2.5-1.6l5.7-6.6c-.8-.5-2.1-.8-3-.8-4,0-7.2,3.4-7.2,7.6s3.2,7.6,7.2,7.6,3.8-.9,4.9-2.1c.7-.6,1.3-1.2,2.2-1.2,1.5,0,2.5,1.1,2.5,2.5s-.3,1.2-.7,1.7c-1.8,2.1-5,3.9-8.9,3.9-7,0-12.4-5.5-12.4-12.4h-.1Z"/>
    <path class="st5" d="M130.1,27.6c.7,0,1.4.3,1.8.9.7,1.1,1.7,2.4,3.7,2.4s2.6-1.2,2.6-2.5-1.8-2.6-4-3.4c-2.9-1.1-6.3-2.3-6.3-7.2s3.3-7.2,7.6-7.2,7.6,2.4,7.6,5.4-1.1,2.3-2.4,2.3-1.2-.2-1.5-.8c-.8-.8-1.9-2.2-3.8-2.2s-2.6,1.2-2.6,2.5,2,2.5,4.3,3.4c2.8.8,6.1,2.4,6.1,7s-3.4,7.3-7.8,7.3-7.8-2.7-7.8-5.6,1.1-2.4,2.3-2.4h.2Z"/>
    <path class="st5" d="M143.3,13.7c0-1.4,1.1-2.4,2.4-2.4h1.7v-3.5c0-1.5,1.2-2.5,2.5-2.5s2.5,1.2,2.5,2.5v3.5h5.5c1.3,0,2.4,1.1,2.4,2.4s-1.1,2.4-2.4,2.4h-5.5v8.4c0,4.1,2.3,6.2,5.5,6.2s2.4,1.1,2.4,2.4-1.1,2.4-2.4,2.4c-6,0-10.6-4.2-10.6-11v-8.4h-1.7c-1.3,0-2.4-1.1-2.4-2.4h.1Z"/>
    <path class="st5" d="M161,23.2c0-6.9,5.3-12.4,12.4-12.4s12.4,5.5,12.4,12.4-5.3,12.4-12.4,12.4-12.4-5.5-12.4-12.4ZM180.5,23.2c0-4.2-3-7.6-7.2-7.6s-7.2,3.4-7.2,7.6,3,7.6,7.2,7.6,7.2-3.5,7.2-7.6Z"/>
    <path class="st5" d="M188.7,21.8c0-6.6,4.4-10.9,10.5-10.9s2.4,1.1,2.4,2.4-1.1,2.4-2.4,2.4c-3,0-5.4,2.1-5.4,6.2v11.1c0,1.5-1.2,2.6-2.5,2.6s-2.5-1.2-2.5-2.6v-11.1h-.1Z"/>
    <path class="st5" d="M221,32.8c-2.1,1.8-4.7,2.9-7.8,2.9-6.7,0-11.8-5.5-11.8-12.4s5-12.4,11.8-12.4,5.7,1.1,7.8,2.9v-.3c0-1.5,1.2-2.5,2.5-2.5s2.5,1.2,2.5,2.5v19.5c0,1.5-1.2,2.6-2.5,2.6s-2.5-1.2-2.5-2.6v-.2ZM221,23.2v-.3c-.2-4.2-3.3-7.3-7.2-7.3s-7.2,3.3-7.2,7.6,3.2,7.6,7.2,7.6,7.2-3.3,7.2-7.6Z"/>
    <path class="st5" d="M230.1,21.7c0-6.7,4.6-10.8,10.5-10.8s10.5,4.2,10.5,10.8v11.3c0,1.5-1.2,2.6-2.5,2.6s-2.5-1.2-2.5-2.6v-11.4c0-3.9-2.4-5.9-5.4-5.9s-5.4,2.1-5.4,5.9v11.4c0,1.5-1.2,2.6-2.5,2.6s-2.5-1.2-2.5-2.6v-11.3h-.2Z"/>
  </g>
</svg>