<?xml version="1.0" encoding="UTF-8"?>
<svg id="Layer_1" xmlns="http://www.w3.org/2000/svg" version="1.1" xmlns:xlink="http://www.w3.org/1999/xlink" viewBox="0 0 259 39.3">
  <!-- Generator: Adobe Illustrator 29.0.0, SVG Export Plug-In . SVG Version: 2.1.0 Build 186)  -->
  <defs>
    <style>
      .st0 {
        fill: url(#linear-gradient2);
      }

      .st1 {
        fill: url(#linear-gradient1);
      }

      .st2 {
        fill: #231f20;
      }

      .st3 {
        fill: #c5d831;
      }

      .st4 {
        fill: url(#linear-gradient);
      }

      .st5 {
        fill: #b02e91;
      }
    </style>
    <linearGradient id="linear-gradient" x1="188.3" y1="51.8" x2="192.5" y2="15.4" gradientUnits="userSpaceOnUse">
      <stop offset="0" stop-color="#0096db"/>
      <stop offset="1" stop-color="#d24f9c"/>
    </linearGradient>
    <linearGradient id="linear-gradient1" x1="210.1" y1="54.8" x2="214.2" y2="18.4" xlink:href="#linear-gradient"/>
    <linearGradient id="linear-gradient2" x1="234.8" y1="57.8" x2="238.9" y2="21.4" xlink:href="#linear-gradient"/>
  </defs>
  <path class="st4" d="M180.1,32.9l3.7-4.8c1,.8,2,1.5,3,2,1,.5,2.1.7,3.4.7s2.6-.4,3.6-1.2c1-.8,1.4-1.9,1.4-3.3s-.4-2.1-1.1-2.9c-.7-.8-1.9-1.3-3.5-1.3s-1.2,0-1.7.2c-.5.1-.9.2-1.2.4l-1.7-2.8,7.6-7.8h-11.1v-5.9h18.6v4.8l-6.2,7c2.4.4,4.1,1.4,5.3,2.9,1.2,1.6,1.8,3.5,1.8,5.8s-.5,3.9-1.6,5.3c-1.1,1.5-2.5,2.6-4.3,3.3-1.8.8-3.7,1.2-5.7,1.2s-4.2-.3-5.9-1c-1.7-.7-3.2-1.6-4.5-2.7Z"/>
  <path class="st1" d="M223.6,7.2l-2.5,5.2c-.4-.2-1-.4-1.9-.8-.9-.3-1.8-.5-2.9-.5-1.7,0-3.2.6-4.5,1.9-1.3,1.3-2,2.9-2.3,5,.7-.4,1.5-.8,2.5-1.2,1-.4,2-.5,3.2-.5,2.9,0,5.2.9,6.9,2.7,1.7,1.8,2.5,4.1,2.5,7s-.4,3.7-1.2,5.3c-.8,1.6-2,2.9-3.6,3.9-1.6,1-3.5,1.5-5.7,1.5s-4.1-.5-5.8-1.5c-1.7-1-3.1-2.6-4.1-4.8-1-2.2-1.5-5-1.5-8.5s.5-5.9,1.6-8.4,2.6-4.5,4.6-5.9c2-1.4,4.5-2.2,7.5-2.2s3.1.2,4.4.7c1.2.4,2.2.8,2.9,1.2ZM209.4,23.4c0,1.9.3,3.4.7,4.4.4,1.1,1,1.8,1.7,2.3.7.4,1.5.7,2.2.7,1.3,0,2.3-.4,3.1-1.3.8-.9,1.2-2,1.2-3.5s-.4-2.4-1.2-3.1c-.8-.8-1.8-1.1-3-1.1s-2.1.2-2.8.5c-.8.3-1.4.7-2,1.2Z"/>
  <polygon class="st3" points="236.6 28.7 234.8 33.6 233.6 36.6 239.1 36.6 239.1 34.2 239.1 29 239.1 22 236.6 28.7"/>
  <path class="st2" d="M245.8,26.2"/>
  <path class="st0" d="M253.6,19.8c0-8-6.5-14.5-14.5-14.5s-14.5,6.5-14.5,14.5,2,8.4,5.1,11l-.6,1.1c-1.2,2.1.3,4.7,2.7,4.7h1.7l1.1-3,1.8-4.9,2.5-6.7,2.5,6.7,1.8,4.9,1.1,3h1.7c2.4,0,3.9-2.6,2.7-4.7l-.6-1.1-2.7-4.6-4-6.9c-1.2-2.1-4.2-2.1-5.4,0l-4,6.9c-1.6-1.7-2.6-3.9-2.6-6.4,0-5.1,4.1-9.3,9.3-9.3s9.3,4.1,9.3,9.3-.8,4.3-2.1,5.9l2.2,5.2c3.1-2.7,5.1-6.6,5.1-11Z"/>
  <g>
    <path class="st5" d="M7.1,21.8c0-6.3,4.2-10.4,10-10.4s2.3,1,2.3,2.3-1,2.3-2.3,2.3c-2.9,0-5.1,2-5.1,5.9v10.6c0,1.4-1.1,2.5-2.4,2.5s-2.4-1.1-2.4-2.5v-10.6Z"/>
    <path class="st5" d="M19.2,23.1c0-6.6,5-11.8,11.8-11.8s6.2,1.4,7.7,2.8c.5.5.9,1.2.9,1.9s-.2,1.2-.7,1.8l-6.8,8.1c-.5.6-1,.8-1.7.8-1.3,0-2.3-.9-2.3-2.2s.1-1.1.5-1.5l5.4-6.3c-.8-.5-2-.8-2.9-.8-3.8,0-6.8,3.2-6.8,7.2s3,7.2,6.8,7.2,3.6-.9,4.7-2c.7-.6,1.2-1.1,2.1-1.1,1.4,0,2.4,1,2.4,2.4s-.3,1.1-.7,1.6c-1.7,2-4.8,3.7-8.5,3.7-6.7,0-11.8-5.2-11.8-11.8Z"/>
    <path class="st5" d="M44.2,27.3c.7,0,1.3.3,1.7.9.7,1,1.6,2.3,3.5,2.3s2.5-1.1,2.5-2.4-1.7-2.5-3.8-3.2c-2.8-1-6-2.2-6-6.8s3.1-6.8,7.2-6.8,7.2,2.3,7.2,5.1-1,2.2-2.3,2.2-1.1-.2-1.4-.8c-.8-.8-1.8-2.1-3.6-2.1s-2.5,1.1-2.5,2.4,1.9,2.4,4.1,3.2c2.7.8,5.8,2.3,5.8,6.7s-3.2,6.9-7.4,6.9-7.4-2.6-7.4-5.3,1-2.3,2.2-2.3Z"/>
    <path class="st5" d="M56.8,14.1c0-1.3,1-2.3,2.3-2.3h1.6v-3.3c0-1.4,1.1-2.4,2.4-2.4s2.4,1.1,2.4,2.4v3.3h5.2c1.2,0,2.3,1,2.3,2.3s-1,2.3-2.3,2.3h-5.2v8c0,3.9,2.2,5.9,5.2,5.9s2.3,1,2.3,2.3-1,2.3-2.3,2.3c-5.7,0-10.1-4-10.1-10.5v-8h-1.6c-1.2,0-2.3-1-2.3-2.3Z"/>
    <path class="st5" d="M73.6,23.1c0-6.6,5-11.8,11.8-11.8s11.8,5.2,11.8,11.8-5,11.8-11.8,11.8-11.8-5.2-11.8-11.8ZM92.2,23.1c0-4-2.9-7.2-6.8-7.2s-6.8,3.2-6.8,7.2,2.9,7.2,6.8,7.2,6.8-3.3,6.8-7.2Z"/>
    <path class="st5" d="M100,21.8c0-6.3,4.2-10.4,10-10.4s2.3,1,2.3,2.3-1,2.3-2.3,2.3c-2.9,0-5.1,2-5.1,5.9v10.6c0,1.4-1.1,2.5-2.4,2.5s-2.4-1.1-2.4-2.5v-10.6Z"/>
    <path class="st5" d="M130.7,32.2c-2,1.7-4.5,2.8-7.4,2.8-6.4,0-11.2-5.2-11.2-11.8s4.8-11.8,11.2-11.8,5.4,1,7.4,2.8v-.3c0-1.4,1.1-2.4,2.4-2.4s2.4,1.1,2.4,2.4v18.5c0,1.4-1.1,2.5-2.4,2.5s-2.4-1.1-2.4-2.5v-.2ZM130.7,23.1v-.3c-.2-4-3.1-6.9-6.8-6.9s-6.8,3.1-6.8,7.2,3,7.2,6.8,7.2,6.8-3.1,6.8-7.2Z"/>
    <path class="st5" d="M139.3,21.7c0-6.4,4.4-10.3,10-10.3s10,4,10,10.3v10.7c0,1.4-1.1,2.5-2.4,2.5s-2.4-1.1-2.4-2.5v-10.8c0-3.7-2.3-5.6-5.1-5.6s-5.1,2-5.1,5.6v10.8c0,1.4-1.1,2.5-2.4,2.5s-2.4-1.1-2.4-2.5v-10.7Z"/>
    <path class="st5" d="M160,14.1c0-1.3,1-2.3,2.3-2.3h1.6v-3.3c0-1.4,1.1-2.4,2.4-2.4s2.4,1.1,2.4,2.4v3.3h5.2c1.2,0,2.3,1,2.3,2.3s-1,2.3-2.3,2.3h-5.2v8c0,3.9,2.2,5.9,5.2,5.9s2.3,1,2.3,2.3-1,2.3-2.3,2.3c-5.7,0-10.1-4-10.1-10.5v-8h-1.6c-1.2,0-2.3-1-2.3-2.3Z"/>
  </g>
</svg>