<?xml version="1.0" encoding="UTF-8"?>
<svg id="Layer_1" xmlns="http://www.w3.org/2000/svg" version="1.1" viewBox="0 0 259 39.3">
  <!-- Generator: Adobe Illustrator 29.0.0, SVG Export Plug-In . SVG Version: 2.1.0 Build 186)  -->
  <defs>
    <style>
      .st0 {
        fill: #fff;
      }

      .st1 {
        fill: #c5d831;
      }
    </style>
  </defs>
  <path class="st0" d="M183.3,31.8l3.7-4.8c1,.8,2,1.5,3,2,1,.5,2.1.7,3.4.7s2.6-.4,3.6-1.2c1-.8,1.4-1.9,1.4-3.3s-.4-2.1-1.1-2.9c-.7-.8-1.9-1.3-3.5-1.3s-1.2,0-1.7.2c-.5.1-.9.2-1.2.4l-1.7-2.8,7.6-7.8h-11.1v-5.9h18.7v4.9l-6.2,7c2.4.4,4.1,1.4,5.4,2.9,1.2,1.6,1.8,3.5,1.8,5.8s-.5,3.9-1.6,5.4c-1.1,1.5-2.5,2.6-4.3,3.3-1.8.8-3.7,1.2-5.7,1.2s-4.2-.3-5.9-1c-1.7-.7-3.2-1.6-4.5-2.7Z"/>
  <path class="st0" d="M226.8,6l-2.5,5.2c-.4-.2-1-.4-1.9-.8-.9-.3-1.8-.5-2.9-.5-1.7,0-3.2.6-4.5,1.9-1.3,1.3-2,2.9-2.3,5,.7-.4,1.5-.8,2.5-1.2,1-.4,2-.5,3.2-.5,2.9,0,5.2.9,6.9,2.7,1.7,1.8,2.5,4.1,2.5,7s-.4,3.7-1.2,5.3c-.8,1.6-2,2.9-3.6,3.9-1.6,1-3.5,1.5-5.8,1.5s-4.1-.5-5.8-1.5c-1.7-1-3.1-2.6-4.1-4.8-1-2.2-1.5-5-1.5-8.6s.5-5.9,1.6-8.4,2.6-4.5,4.6-5.9c2-1.4,4.5-2.2,7.5-2.2s3.2.2,4.4.7c1.2.4,2.2.8,2.9,1.2ZM212.6,22.2c0,1.9.3,3.4.7,4.5.4,1.1,1,1.8,1.7,2.3.7.4,1.5.7,2.2.7,1.3,0,2.3-.4,3.1-1.3.8-.9,1.2-2.1,1.2-3.5s-.4-2.4-1.2-3.1c-.8-.8-1.8-1.1-3-1.1s-2.1.2-2.9.5c-.8.3-1.4.7-2,1.2Z"/>
  <polygon class="st1" points="239.8 27.5 238 32.4 236.9 35.4 242.4 35.4 242.4 33.1 242.4 27.8 242.4 20.8 239.8 27.5"/>
  <path class="st0" d="M249,25"/>
  <path class="st0" d="M256.8,18.6c0-8-6.5-14.5-14.5-14.5s-14.5,6.5-14.5,14.5,2,8.4,5.1,11.1l-.6,1.1c-1.2,2.1.3,4.7,2.7,4.7h1.7l1.1-3,1.8-4.9,2.5-6.7,2.5,6.7,1.8,4.9,1.1,3h1.7c2.4,0,3.9-2.6,2.7-4.7l-.6-1.1-2.7-4.6-4-6.9c-1.2-2.1-4.2-2.1-5.4,0l-4,6.9c-1.6-1.7-2.6-3.9-2.6-6.5,0-5.1,4.2-9.3,9.3-9.3s9.3,4.2,9.3,9.3-.8,4.3-2.1,5.9l2.2,5.2c3.1-2.7,5.1-6.6,5.1-11.1Z"/>
  <g>
    <path class="st0" d="M9.2,33.8H3.8V10.3h5.4v5.3c.7-1.8,1.8-3.2,3.2-4.3,1.4-1.1,3.1-1.6,5.2-1.5v5.7h-.3c-1.2,0-2.3.2-3.2.6-1,.4-1.8,1-2.5,1.7-.7.8-1.3,1.7-1.6,2.9-.4,1.2-.6,2.5-.6,4.1v8.9Z"/>
    <path class="st0" d="M25.3,28.4c1.2,1,2.7,1.5,4.4,1.5s2.5-.2,3.5-.7c1-.5,1.9-1.2,2.9-2.1l3.2,2.8c-1.1,1.3-2.5,2.4-4,3.2-1.6.8-3.4,1.2-5.6,1.2s-3.3-.3-4.7-.9c-1.5-.6-2.7-1.4-3.8-2.5-1.1-1.1-1.9-2.4-2.6-3.8-.6-1.5-.9-3.2-.9-5s.3-3.3.8-4.8c.6-1.5,1.4-2.8,2.4-3.9,1-1.1,2.2-2,3.6-2.6,1.4-.7,2.9-1,4.6-1s3.5.3,4.9,1c1.4.7,2.6,1.6,3.5,2.8.9,1.2,1.6,2.5,2.1,4,.5,1.5.7,3.2.7,4.8s0,.5,0,.7c0,.2,0,.5,0,.8h-17.3c.3,1.9,1.1,3.4,2.3,4.4ZM35,20.4c0-.9-.3-1.7-.6-2.4-.3-.8-.7-1.4-1.2-2-.5-.5-1.1-1-1.8-1.3-.7-.3-1.5-.5-2.4-.5-1.7,0-3,.6-4.1,1.7-1.1,1.1-1.7,2.6-2,4.5h12.1Z"/>
    <path class="st0" d="M59.4,30.1c-.4.9-1.1,1.7-1.8,2.3-.8.6-1.7,1.1-2.8,1.4-1.1.3-2.2.5-3.4.5s-3.4-.3-5.1-.9-3.3-1.5-4.8-2.6l2.4-3.6c1.3.9,2.6,1.7,3.9,2.2,1.3.5,2.6.7,3.8.7s2.1-.2,2.7-.7c.6-.5,1-1.1,1-1.8h0c0-.5-.1-.9-.4-1.2-.3-.3-.7-.6-1.2-.9s-1.1-.5-1.7-.7c-.6-.2-1.3-.4-2-.6-.9-.3-1.7-.6-2.6-.9-.9-.3-1.7-.7-2.4-1.3-.7-.5-1.3-1.2-1.7-1.9-.4-.8-.7-1.7-.7-2.8h0c0-1.2.2-2.2.6-3.1.4-.9,1-1.6,1.8-2.3s1.6-1.1,2.7-1.4,2.1-.5,3.3-.5,3,.2,4.5.7c1.5.5,2.9,1.1,4.1,2l-2.1,3.8c-1.1-.7-2.3-1.2-3.4-1.6-1.2-.4-2.2-.6-3.2-.6s-1.8.2-2.4.7c-.6.4-.9,1-.9,1.7h0c0,.5.1.9.4,1.2.3.3.7.6,1.2.8.5.3,1.1.5,1.7.7.6.2,1.3.4,2,.6.9.3,1.7.6,2.6.9.9.4,1.6.8,2.3,1.3.7.5,1.3,1.1,1.7,1.9.4.7.7,1.6.7,2.7h0c0,1.3-.2,2.4-.7,3.3Z"/>
    <path class="st0" d="M69.1,26.4c0,1,.3,1.8.8,2.3.5.5,1.2.7,2.1.7s2.3-.3,3.3-.8v4.4c-.7.4-1.4.7-2.2.9-.8.2-1.7.3-2.7.3s-1.9-.1-2.7-.4c-.8-.2-1.6-.6-2.2-1.2-.6-.5-1.1-1.2-1.4-2.1-.3-.9-.5-2-.5-3.3v-12.4h-3v-4.6h3V3.8h5.4v6.4h6.3v4.6h-6.3v11.6Z"/>
    <path class="st0" d="M100.5,26.8c-.6,1.5-1.5,2.8-2.6,3.9-1.1,1.1-2.4,2-4,2.6-1.5.7-3.2,1-5,1s-3.4-.3-5-1c-1.5-.6-2.8-1.5-4-2.6-1.1-1.1-2-2.4-2.6-3.9-.6-1.5-.9-3-.9-4.7s.3-3.3,1-4.8c.6-1.5,1.5-2.8,2.6-3.9,1.1-1.1,2.4-2,4-2.6,1.5-.7,3.2-1,5-1s3.5.3,5,1c1.5.6,2.8,1.5,4,2.6,1.1,1.1,2,2.4,2.6,3.9.6,1.5.9,3.1.9,4.8s-.3,3.3-1,4.8ZM95.5,19.2c-.4-.9-.8-1.7-1.5-2.4-.6-.7-1.4-1.2-2.3-1.6-.9-.4-1.8-.6-2.9-.6s-2,.2-2.9.6c-.9.4-1.6.9-2.2,1.6-.6.7-1.1,1.5-1.4,2.4-.3.9-.5,1.9-.5,2.9s.2,2,.5,3c.4.9.8,1.7,1.5,2.4.6.7,1.4,1.2,2.3,1.6.9.4,1.8.6,2.9.6s2.1-.2,2.9-.6c.9-.4,1.6-.9,2.2-1.6.6-.7,1.1-1.5,1.4-2.4s.5-1.9.5-2.9-.2-2-.5-2.9Z"/>
    <path class="st0" d="M109.8,33.8h-5.4V10.3h5.4v5.3c.7-1.8,1.8-3.2,3.2-4.3,1.4-1.1,3.1-1.6,5.2-1.5v5.7h-.3c-1.2,0-2.3.2-3.2.6-1,.4-1.8,1-2.5,1.7-.7.8-1.3,1.7-1.6,2.9-.4,1.2-.6,2.5-.6,4.1v8.9Z"/>
    <path class="st0" d="M133.5,33.8v-2.9c-.8.9-1.8,1.8-3.1,2.4-1.2.7-2.8,1-4.5,1s-2.2-.2-3.2-.5c-1-.3-1.9-.8-2.6-1.4-.8-.6-1.4-1.4-1.8-2.3-.5-.9-.7-1.9-.7-3.1h0c0-1.4.2-2.5.7-3.4.5-.9,1.1-1.7,2-2.4.8-.6,1.9-1.1,3-1.4,1.2-.3,2.4-.5,3.8-.5s2.6,0,3.6.3c1,.2,1.9.4,2.9.7v-.6c0-1.6-.5-2.9-1.5-3.7-1-.9-2.4-1.3-4.3-1.3s-2.5.1-3.6.4c-1,.3-2.1.6-3.2,1.1l-1.5-4.3c1.3-.6,2.6-1.1,4-1.4,1.4-.4,3-.5,4.9-.5,3.5,0,6.1.9,7.8,2.6,1.7,1.7,2.5,4.2,2.5,7.3v13.9h-5.3ZM133.7,23.8c-.7-.3-1.5-.5-2.4-.7-.9-.2-1.9-.3-3-.3-1.7,0-3,.3-4,1-.9.7-1.4,1.6-1.4,2.8h0c0,1.2.4,2.1,1.3,2.7.9.6,1.9.9,3.2.9s1.7-.1,2.5-.4c.8-.2,1.4-.6,2-1,.6-.4,1-.9,1.3-1.6.3-.6.5-1.3.5-2v-1.5Z"/>
    <path class="st0" d="M148.2,33.8h-5.4V10.3h5.4v3.7c.4-.6.8-1.1,1.3-1.6.5-.5,1-.9,1.6-1.3.6-.4,1.3-.7,2-.9.7-.2,1.5-.3,2.5-.3,2.7,0,4.7.8,6.2,2.4,1.4,1.6,2.2,3.8,2.2,6.6v14.9h-5.4v-13.3c0-1.8-.4-3.2-1.3-4.2-.9-1-2.1-1.5-3.7-1.5s-2.8.5-3.8,1.5c-1,1-1.5,2.4-1.5,4.3v13.2Z"/>
    <path class="st0" d="M174.4,26.4c0,1,.3,1.8.8,2.3.5.5,1.2.7,2.1.7s2.3-.3,3.3-.8v4.4c-.7.4-1.4.7-2.2.9-.8.2-1.7.3-2.7.3s-1.9-.1-2.7-.4c-.8-.2-1.6-.6-2.2-1.2-.6-.5-1.1-1.2-1.4-2.1-.3-.9-.5-2-.5-3.3v-12.4h-3v-4.6h3V3.8h5.4v6.4h6.3v4.6h-6.3v11.6Z"/>
  </g>
</svg>