<?xml version="1.0" encoding="UTF-8"?>
<svg id="Layer_1" xmlns="http://www.w3.org/2000/svg" version="1.1" viewBox="0 0 259.04 64">
  <!-- Generator: Adobe Illustrator 29.0.0, SVG Export Plug-In . SVG Version: 2.1.0 Build 186)  -->
  <defs>
    <style>
      .st0 {
        fill: #fff;
      }

      .st1 {
        fill: #231f20;
      }

      .st2 {
        fill: #f4af1b;
      }
    </style>
  </defs>
  <polygon class="st2" points="229.72 36.37 226.99 43.63 225.31 48.12 233.5 48.12 233.5 44.63 233.5 36.88 233.5 26.33 229.72 36.37"/>
  <path class="st1" d="M243.44,32.63"/>
  <path class="st0" d="M23.54,1.6C10.71,1.6,2.53,10.9,2.53,23.18c0,10.69,6.63,21.34,21.2,21.34,12.16,0,17.91-6.65,20.1-12.7h-7.65c-2.19,3.94-5.7,6.54-12.05,6.54-8.25,0-13.51-5.72-13.94-13.53h34.2c.03-.79.03-1.32.03-2.01,0-9.92-5.44-21.23-20.89-21.23ZM10.36,19.4c.7-6.65,4.79-11.85,13.12-11.85,10.05,0,12.62,7.02,12.97,11.85H10.36Z"/>
  <path class="st0" d="M87.55,15.55c0-6.72-3.29-13.95-18.08-13.95-13.96,0-17.57,7.57-18.06,12.96h7.65c.81-3.73,2.65-7.16,10.44-7.16,8.66,0,10.57,4.16,10.57,8.6v2.16h-9.91c-11.61,0-21.07,2.89-21.07,13.3,0,6.1,4.23,13.06,15.72,13.06,8.62,0,13.22-2.85,15.37-7.08.03,1.34.16,4.47.48,5.95h7.28c-.14-.94-.38-6.11-.38-10.07V15.55ZM80.06,25.35c0,6.85-2.9,13.17-13.7,13.17-6.74,0-9.74-3.4-9.74-7.45,0-5.43,4.38-7.5,13.71-7.5,5.73,0,8.46,0,9.73.03v1.77Z"/>
  <path class="st0" d="M113.34,18.96c-9.31-1.23-11.22-3.05-11.22-6.08,0-2.32,1.6-5.57,9.13-5.57,8.94,0,10.6,3.98,11.22,6.43h7.68c-.42-4.88-4.39-12.15-18.47-12.15-13.02,0-17.21,6.72-17.21,11.97s2.69,10.06,16.99,11.84c10.34,1.23,12.38,3.54,12.38,6.94,0,3.63-2.76,6.36-10.58,6.36-7.35,0-11.48-2.81-12.94-7.62h-7.7c1.4,8.43,8.32,13.44,20.17,13.44,13.14,0,18.71-5.45,18.71-12.76,0-6.03-2.85-10.76-18.14-12.81Z"/>
  <path class="st0" d="M167.92,2.72c-7.77,19.12-11.91,30.79-13.34,34.81h-.13c-1.22-3.44-5.91-14.86-14.55-34.81h-8.41l18.84,42.54c-3.71,7.99-5.81,10.27-11.3,10.27-1.04,0-2.91-.11-4.48-.32v6.72c1.42.27,3.81.43,5.31.43,10.23,0,12.86-3.53,20.07-21.01l15.94-38.63h-7.94Z"/>
  <path class="st0" d="M195.81,9.24c4.4,0,8.32,2.06,10.85,5.27.69-2.81,1.71-5.48,3.01-7.99-3.75-3.14-8.57-5.03-13.84-5.03-11.91,0-21.57,9.66-21.57,21.57s9.66,21.57,21.57,21.57c5.27,0,10.09-1.89,13.84-5.03-1.3-2.5-2.32-5.18-3.01-7.99-2.53,3.21-6.45,5.27-10.85,5.27-7.63,0-13.82-6.19-13.82-13.82s6.19-13.82,13.82-13.82Z"/>
  <path class="st0" d="M255.07,23.06c0-11.91-9.66-21.57-21.57-21.57s-21.57,9.66-21.57,21.57c0,6.6,2.97,12.51,7.65,16.47l-.91,1.58c-1.8,3.11.45,7,4.04,7h2.6l1.69-4.49,2.73-7.26,3.78-10.04,3.77,10.03,2.74,7.28,1.69,4.49h2.6c3.59,0,5.84-3.89,4.04-7l-.91-1.58-3.98-6.9-5.9-10.22c-1.8-3.11-6.29-3.11-8.08,0l-5.92,10.25c-2.41-2.49-3.89-5.87-3.89-9.61,0-7.63,6.19-13.82,13.82-13.82s13.82,6.19,13.82,13.82c0,3.31-1.17,6.35-3.12,8.73l3.24,7.74c4.68-3.96,7.65-9.86,7.65-16.47Z"/>
</svg>
